<?xml version="1.0" encoding="UTF-8" standalone="no"?>
<svg
   xmlns:dc="http://purl.org/dc/elements/1.1/"
   xmlns:cc="http://creativecommons.org/ns#"
   xmlns:rdf="http://www.w3.org/1999/02/22-rdf-syntax-ns#"
   xmlns:svg="http://www.w3.org/2000/svg"
   xmlns="http://www.w3.org/2000/svg"
   xmlns:xlink="http://www.w3.org/1999/xlink"
   xmlns:sodipodi="http://sodipodi.sourceforge.net/DTD/sodipodi-0.dtd"
   xmlns:inkscape="http://www.inkscape.org/namespaces/inkscape"
   class="ionicon"
   viewBox="0 0 512 512"
   version="1.1"
   id="svg10"
   sodipodi:docname="layercoin.svg"
   inkscape:version="1.0.1 (3bc2e813f5, 2020-09-07)">
  <metadata
     id="metadata16">
    <rdf:RDF>
      <cc:Work
         rdf:about="">
        <dc:format>image/svg+xml</dc:format>
        <dc:type
           rdf:resource="http://purl.org/dc/dcmitype/StillImage" />
      </cc:Work>
    </rdf:RDF>
  </metadata>
  <defs
     id="defs14">
    <linearGradient
       inkscape:collect="always"
       id="linearGradient62">
      <stop
         style="stop-color:#ff0000;stop-opacity:1"
         offset="0"
         id="stop58" />
      <stop
         style="stop-color:#ffff00;stop-opacity:1"
         offset="0.36852756"
         id="stop64" />
      <stop
         style="stop-color:#00ff00;stop-opacity:1"
         offset="0.72976261"
         id="stop66" />
      <stop
         style="stop-color:#00ffff;stop-opacity:1"
         offset="1"
         id="stop60" />
    </linearGradient>
    <linearGradient
       inkscape:collect="always"
       id="linearGradient50">
      <stop
         style="stop-color:#ff0000;stop-opacity:1"
         offset="0"
         id="stop46" />
      <stop
         style="stop-color:#ffff00;stop-opacity:1"
         offset="1"
         id="stop48" />
    </linearGradient>
    <linearGradient
       inkscape:collect="always"
       id="linearGradient42">
      <stop
         style="stop-color:#ff0000;stop-opacity:1"
         offset="0"
         id="stop38" />
      <stop
         style="stop-color:#ffff00;stop-opacity:1"
         offset="0.17987348"
         id="stop44" />
      <stop
         style="stop-color:#00ff00;stop-opacity:1"
         offset="0.3247931"
         id="stop52" />
      <stop
         style="stop-color:#00ffff;stop-opacity:1"
         offset="0.51325989"
         id="stop54" />
      <stop
         style="stop-color:#0000ff;stop-opacity:1"
         offset="0.80831224"
         id="stop56" />
      <stop
         style="stop-color:#ff00ff;stop-opacity:1"
         offset="1"
         id="stop40" />
    </linearGradient>
    <radialGradient
       inkscape:collect="always"
       xlink:href="#linearGradient42"
       id="radialGradient32"
       cx="222.68031"
       cy="-286.85272"
       fx="222.6803"
       fy="-286.85272"
       r="208"
       gradientTransform="matrix(-0.53868804,1.3814916,-2.3819874,-0.92831595,-313.46897,-430.70712)"
       gradientUnits="userSpaceOnUse" />
    <radialGradient
       inkscape:collect="always"
       xlink:href="#linearGradient62"
       id="radialGradient34"
       cx="182.46069"
       cy="-76.330933"
       fx="182.46066"
       fy="-76.330933"
       r="208"
       gradientTransform="matrix(0.26129089,1.2189682,-1.5085009,0.3234575,60.36885,-114.26329)"
       gradientUnits="userSpaceOnUse" />
    <radialGradient
       inkscape:collect="always"
       xlink:href="#linearGradient50"
       id="radialGradient36"
       cx="220.17583"
       cy="210.64252"
       fx="220.17583"
       fy="210.64252"
       r="208"
       gradientTransform="matrix(-0.55093818,0.86165671,-0.9923323,-0.63441003,539.88714,67.436833)"
       gradientUnits="userSpaceOnUse" />
  </defs>
  <sodipodi:namedview
     pagecolor="#ffffff"
     bordercolor="#666666"
     borderopacity="1"
     objecttolerance="10"
     gridtolerance="10"
     guidetolerance="10"
     inkscape:pageopacity="0"
     inkscape:pageshadow="2"
     inkscape:window-width="1920"
     inkscape:window-height="1017"
     id="namedview12"
     showgrid="false"
     inkscape:zoom="1.1739077"
     inkscape:cx="134.7427"
     inkscape:cy="165.29117"
     inkscape:window-x="-8"
     inkscape:window-y="-8"
     inkscape:window-maximized="1"
     inkscape:current-layer="svg10" />
  <title
     id="title2">Layers</title>
  <path
     d="M256 256c-13.47 0-26.94-2.39-37.44-7.17l-148-67.49C63.79 178.26 48 169.25 48 152.24s15.79-26 22.58-29.12l149.28-68.07c20.57-9.4 51.61-9.4 72.19 0l149.37 68.07c6.79 3.09 22.58 12.1 22.58 29.12s-15.79 26-22.58 29.11l-148 67.48C282.94 253.61 269.47 256 256 256zm176.76-100.86z"
     id="path4"
     style="fill-opacity:1;fill:url(#radialGradient36)" />
  <path
     d="M441.36 226.81L426.27 220l-38.77 17.74-94 43c-10.5 4.8-24 7.19-37.44 7.19s-26.93-2.39-37.42-7.19l-94.07-43L85.79 220l-15.22 6.84C63.79 229.93 48 239 48 256s15.79 26.08 22.56 29.17l148 67.63C229 357.6 242.49 360 256 360s26.94-2.4 37.44-7.19l147.87-67.61c6.81-3.09 22.69-12.11 22.69-29.2s-15.77-26.07-22.64-29.19z"
     id="path6"
     style="fill-opacity:1;fill:url(#radialGradient34)" />
  <path
     d="M441.36 330.8l-15.09-6.8-38.77 17.73-94 42.95c-10.5 4.78-24 7.18-37.44 7.18s-26.93-2.39-37.42-7.18l-94.07-43L85.79 324l-15.22 6.84C63.79 333.93 48 343 48 360s15.79 26.07 22.56 29.15l148 67.59C229 461.52 242.54 464 256 464s26.88-2.48 37.38-7.27l147.92-67.57c6.82-3.08 22.7-12.1 22.7-29.16s-15.77-26.07-22.64-29.2z"
     id="path8"
     style="fill-opacity:1;fill:url(#radialGradient32)" />
</svg>
